<?xml version="1.0" encoding="utf-8"?>
<!-- Generator: Adobe Illustrator 16.0.0, SVG Export Plug-In . SVG Version: 6.00 Build 0)  -->
<!DOCTYPE svg PUBLIC "-//W3C//DTD SVG 1.1//EN" "http://www.w3.org/Graphics/SVG/1.1/DTD/svg11.dtd">
<svg viewBox="160 60 140 120" xmlns="http://www.w3.org/2000/svg">
<path d="M220.936 159.522L222.789 159.522L222.789 166.765L220.936 166.765L220.936 166C220.573 166.337 220.211 166.58 219.847 166.728C219.484 166.877 219.089 166.952 218.664 166.952C217.71 166.952 216.886 166.589 216.19 165.863C215.494 165.138 215.146 164.235 215.146 163.157C215.146 162.039 215.483 161.122 216.156 160.408C216.83 159.693 217.647 159.336 218.61 159.336C219.053 159.336 219.469 159.418 219.858 159.582C220.246 159.747 220.605 159.993 220.936 160.321L220.936 159.522L220.936 159.522ZM243.86 169.685C243.825 169.501 243.736 169.339 243.592 169.199C243.402 169.012 243.171 168.919 242.9 168.919C242.632 168.919 242.404 169.012 242.214 169.199C242.024 169.385 241.929 169.609 241.929 169.871C241.929 170.137 242.024 170.364 242.214 170.55C242.404 170.736 242.633 170.83 242.9 170.83C243.171 170.83 243.402 170.736 243.592 170.55C243.749 170.396 243.842 170.214 243.869 170.005L263.823 170.005C263.85 170.214 263.943 170.396 264.1 170.55C264.291 170.736 264.519 170.83 264.785 170.83C265.057 170.83 265.288 170.736 265.478 170.55C265.668 170.364 265.763 170.137 265.763 169.871C265.763 169.609 265.668 169.385 265.478 169.199C265.288 169.012 265.057 168.919 264.785 168.919C264.519 168.919 264.291 169.012 264.1 169.199C263.957 169.339 263.867 169.501 263.832 169.685L243.86 169.685ZM218.988 161.014C218.415 161.014 217.939 161.212 217.56 161.61C217.182 162.007 216.992 162.516 216.992 163.137C216.992 163.763 217.185 164.278 217.57 164.682C217.956 165.086 218.43 165.288 218.994 165.288C219.576 165.288 220.059 165.089 220.442 164.692C220.825 164.295 221.017 163.774 221.017 163.131C221.017 162.501 220.825 161.99 220.442 161.599C220.059 161.209 219.574 161.014 218.988 161.014ZM224.655 159.522L226.528 159.522L226.528 163.011C226.528 163.689 226.576 164.161 226.671 164.425C226.766 164.689 226.92 164.894 227.13 165.041C227.341 165.187 227.601 165.261 227.91 165.261C228.218 165.261 228.479 165.189 228.695 165.044C228.911 164.9 229.07 164.688 229.175 164.409C229.252 164.2 229.29 163.754 229.29 163.071L229.29 159.522L231.143 159.522L231.143 162.591C231.143 163.856 231.041 164.722 230.838 165.187C230.589 165.756 230.223 166.192 229.738 166.496C229.254 166.799 228.639 166.952 227.892 166.952C227.082 166.952 226.427 166.774 225.927 166.419C225.427 166.064 225.076 165.569 224.872 164.935C224.727 164.495 224.655 163.697 224.655 162.538L224.655 159.522ZM238.454 156.727L240.307 156.727L240.307 166.765L238.454 166.765L238.454 166C238.092 166.337 237.729 166.58 237.365 166.728C237.002 166.877 236.607 166.952 236.182 166.952C235.229 166.952 234.404 166.589 233.708 165.863C233.012 165.138 232.664 164.235 232.664 163.157C232.664 162.039 233.001 161.122 233.674 160.408C234.348 159.693 235.165 159.336 236.128 159.336C236.571 159.336 236.987 159.418 237.376 159.582C237.764 159.747 238.123 159.993 238.454 160.321L238.454 156.727L238.454 156.727ZM236.506 161.014C235.933 161.014 235.457 161.212 235.078 161.61C234.7 162.007 234.51 162.516 234.51 163.137C234.51 163.763 234.703 164.278 235.089 164.682C235.474 165.086 235.949 165.288 236.512 165.288C237.095 165.288 237.577 165.089 237.96 164.692C238.343 164.295 238.535 163.774 238.535 163.131C238.535 162.501 238.343 161.99 237.96 161.599C237.577 161.209 237.092 161.014 236.506 161.014ZM241.976 159.522L243.83 159.522L243.83 166.765L241.976 166.765L241.976 159.522ZM252.911 163.67L246.959 163.67C247.045 164.185 247.274 164.594 247.648 164.898C248.021 165.202 248.497 165.354 249.077 165.354C249.769 165.354 250.364 165.116 250.862 164.642L252.423 165.36C252.034 165.902 251.568 166.302 251.024 166.562C250.482 166.822 249.837 166.952 249.09 166.952C247.932 166.952 246.988 166.593 246.26 165.876C245.531 165.159 245.167 164.262 245.167 163.184C245.167 162.078 245.53 161.161 246.256 160.431C246.983 159.701 247.893 159.336 248.989 159.336C250.151 159.336 251.097 159.701 251.825 160.431C252.554 161.161 252.918 162.125 252.918 163.323L252.911 163.67ZM251.058 162.238C250.936 161.835 250.695 161.506 250.334 161.253C249.974 161 249.556 160.874 249.08 160.874C248.563 160.874 248.11 161.016 247.72 161.3C247.475 161.477 247.249 161.79 247.04 162.238L251.058 162.238ZM254.411 159.522L256.264 159.522L256.264 160.265C256.684 159.917 257.065 159.676 257.406 159.54C257.747 159.404 258.097 159.336 258.454 159.336C259.185 159.336 259.807 159.587 260.317 160.088C260.746 160.514 260.961 161.145 260.961 161.979L260.961 166.765L259.128 166.765L259.128 163.593C259.128 162.729 259.089 162.155 259.01 161.872C258.931 161.588 258.793 161.372 258.596 161.223C258.4 161.075 258.158 161 257.869 161C257.494 161 257.172 161.123 256.904 161.37C256.635 161.616 256.449 161.956 256.345 162.39C256.291 162.616 256.264 163.106 256.264 163.86L256.264 166.765L254.411 166.765L254.411 159.522L254.411 159.522ZM267.273 160.534L266.126 161.659C265.66 161.207 265.237 160.98 264.857 160.98C264.649 160.98 264.486 161.024 264.368 161.11C264.25 161.197 264.192 161.304 264.192 161.433C264.192 161.531 264.229 161.621 264.304 161.702C264.378 161.785 264.563 161.897 264.857 162.039L265.536 162.372C266.251 162.718 266.741 163.071 267.009 163.43C267.275 163.79 267.409 164.211 267.409 164.695C267.409 165.338 267.168 165.875 266.686 166.306C266.204 166.736 265.558 166.952 264.749 166.952C263.672 166.952 262.812 166.539 262.169 165.713L263.309 164.495C263.527 164.744 263.781 164.944 264.073 165.098C264.365 165.251 264.624 165.327 264.85 165.327C265.094 165.327 265.291 165.27 265.44 165.154C265.59 165.039 265.664 164.906 265.664 164.754C265.664 164.475 265.395 164.202 264.857 163.936L264.233 163.63C263.038 163.039 262.44 162.301 262.44 161.413C262.44 160.84 262.665 160.351 263.116 159.945C263.566 159.539 264.142 159.336 264.843 159.336C265.323 159.336 265.774 159.439 266.197 159.646C266.621 159.852 266.979 160.148 267.273 160.534ZM276.266 163.67L270.314 163.67C270.4 164.185 270.629 164.594 271.003 164.898C271.376 165.202 271.852 165.354 272.432 165.354C273.124 165.354 273.719 165.116 274.217 164.642L275.778 165.36C275.389 165.902 274.923 166.302 274.38 166.562C273.837 166.822 273.192 166.952 272.445 166.952C271.287 166.952 270.343 166.593 269.615 165.876C268.886 165.159 268.522 164.262 268.522 163.184C268.522 162.078 268.885 161.161 269.611 160.431C270.338 159.701 271.248 159.336 272.344 159.336C273.506 159.336 274.452 159.701 275.18 160.431C275.909 161.161 276.273 162.125 276.273 163.323L276.266 163.67ZM274.413 162.238C274.291 161.835 274.05 161.506 273.69 161.253C273.329 161 272.911 160.874 272.435 160.874C271.918 160.874 271.465 161.016 271.075 161.3C270.831 161.477 270.604 161.79 270.395 162.238L274.413 162.238ZM278.022 165.041C278.294 165.041 278.524 165.134 278.715 165.321C278.905 165.507 279 165.731 279 165.993C279 166.259 278.905 166.486 278.715 166.672C278.524 166.858 278.294 166.952 278.022 166.952C277.756 166.952 277.527 166.858 277.337 166.672C277.147 166.486 277.051 166.259 277.051 165.993C277.051 165.731 277.147 165.507 277.337 165.321C277.527 165.134 277.756 165.041 278.022 165.041ZM278.022 162.204C278.294 162.204 278.524 162.297 278.715 162.484C278.905 162.67 279 162.894 279 163.156C279 163.422 278.905 163.649 278.715 163.835C278.524 164.022 278.294 164.115 278.022 164.115C277.756 164.115 277.527 164.022 277.337 163.835C277.147 163.649 277.051 163.422 277.051 163.156C277.051 162.894 277.147 162.67 277.337 162.484C277.527 162.297 277.756 162.204 278.022 162.204ZM218.964 156.08C219.236 156.08 219.466 156.173 219.656 156.36C219.846 156.546 219.941 156.77 219.941 157.032C219.941 157.298 219.846 157.525 219.656 157.711C219.466 157.897 219.236 157.991 218.964 157.991C218.697 157.991 218.468 157.897 218.278 157.711C218.089 157.525 217.993 157.298 217.993 157.032C217.993 156.77 218.089 156.546 218.278 156.36C218.468 156.173 218.697 156.08 218.964 156.08Z" fill="#1F1F1F"/>
<path d="M197.406 162.376C197.613 162.069 197.897 161.82 198.258 161.628C198.626 161.436 199.044 161.34 199.513 161.34C200.058 161.34 200.549 161.474 200.986 161.743C201.431 162.012 201.78 162.395 202.034 162.894C202.295 163.385 202.425 163.957 202.425 164.61C202.425 165.262 202.295 165.841 202.034 166.348C201.78 166.847 201.431 167.234 200.986 167.51C200.549 167.787 200.058 167.925 199.513 167.925C199.037 167.925 198.619 167.833 198.258 167.649C197.905 167.457 197.621 167.211 197.406 166.912V167.821H195.794V159.303H197.406V162.376ZM200.779 164.61C200.779 164.226 200.698 163.896 200.537 163.619C200.384 163.336 200.176 163.121 199.916 162.975C199.662 162.829 199.386 162.756 199.087 162.756C198.795 162.756 198.519 162.833 198.258 162.986C198.005 163.132 197.797 163.347 197.636 163.631C197.483 163.915 197.406 164.249 197.406 164.633C197.406 165.016 197.483 165.35 197.636 165.634C197.797 165.918 198.005 166.137 198.258 166.29C198.519 166.436 198.795 166.509 199.087 166.509C199.386 166.509 199.662 166.432 199.916 166.279C200.176 166.125 200.384 165.906 200.537 165.623C200.698 165.339 200.779 165.001 200.779 164.61ZM209.697 161.444L205.749 170.837H204.034L205.415 167.66L202.859 161.444H204.667L206.313 165.899L207.982 161.444H209.697Z" fill="#D2D2D0"/>
<path d="M196.017 144H202.816L220.564 65H173V88.2558H196.017V144Z" fill="#1D1D1B"/>
<path d="M268.272 102.47C275.16 99.3062 276.964 93.101 276.964 87.1214C276.964 71.9979 264.103 65 248.303 65H222.484L215.193 144H248.638C263.085 143.884 279.22 138.581 279.22 120.867C279.22 113.753 275.611 106.42 268.272 102.47Z" fill="#1D1D1B"/>
</svg>
